Coordinates
version=1
nRows=5
nColumns=63
inDegrees=yes

Units are S.I. units (second, meters, Newtons, ...)
If the header above contains a line with 'inDegrees', this indicates whether rotational values are in degrees (yes) or radians (no).

endheader
time	pelvis_tilt	pelvis_list	pelvis_rotation	pelvis_tx	pelvis_ty	pelvis_tz	hip_flexion_r	hip_adduction_r	hip_rotation_r	knee_angle_r	knee_angle_r_beta	ankle_angle_r	subtalar_angle_r	mtp_angle_r	hip_flexion_l	hip_adduction_l	hip_rotation_l	knee_angle_l	knee_angle_l_beta	ankle_angle_l	subtalar_angle_l	mtp_angle_l	L5_S1_Flex_Ext	L5_S1_Lat_Bending	L5_S1_axial_rotation	L4_L5_Flex_Ext	L4_L5_Lat_Bending	L4_L5_axial_rotation	L3_L4_Flex_Ext	L3_L4_Lat_Bending	L3_L4_axial_rotation	L2_L3_Flex_Ext	L2_L3_Lat_Bending	L2_L3_axial_rotation	L1_L2_Flex_Ext	L1_L2_Lat_Bending	L1_L2_axial_rotation	L1_T12_Flex_Ext	L1_T12_Lat_Bending	L1_T12_axial_rotation	Abs_r3	Abs_r2	Abs_r1	Abs_t1	Abs_t2	neck_flexion	neck_bending	neck_rotation	arm_flex_r	arm_add_r	arm_rot_r	elbow_flex_r	pro_sup_r	wrist_flex_r	wrist_dev_r	arm_flex_l	arm_add_l	arm_rot_l	elbow_flex_l	pro_sup_l	wrist_flex_l	wrist_dev_l
      2.62068966	      3.35847253	     -1.73499329	     91.72280148	      0.20603347	      0.91933019	      0.63739447	     -1.03582345	      0.26662199	     -1.99626458	      1.97369132	      0.03444741	     21.29463383	      4.94243744	      0.00000000	      1.42221833	      0.88828661	      1.67281714	      5.68895722	      0.09929103	     19.64723284	     -4.22095288	      0.00000000	     -0.02769685	     -0.13875207	     -1.92927309	     -0.05143581	     -0.18454025	     -2.04985266	     -0.04550315	     -0.33736177	     -2.04985266	     -0.03165473	     -0.33736177	     -1.68811395	     -0.02571929	     -0.28294321	     -1.56753438	     -0.01582598	     -0.21492695	     -1.44695482	     -0.19783580	     -1.56959113	    -10.73003813	      0.00000000	      0.00000000	      4.46937776	      5.43516256	     12.30394001	     13.63296645	    -10.23747705	     77.28698957	     23.50870427	     51.08801298	     -3.23875966	     -0.24279547	     -7.01090432	    -15.70685533	     25.88856700	     38.17225083	     87.87252401	     -7.92981848	      8.11297943
      2.63793103	      3.37588956	     -1.74501457	     91.55512105	      0.20622090	      0.91929895	      0.63718462	     -1.06054624	      0.30057256	     -1.15492676	      1.93147842	      0.03371066	     21.15826050	      4.00621596	      0.00000000	      1.31871064	      0.94169303	      2.94310077	      5.53513258	      0.09660629	     19.18325460	     -6.30837882	      0.00000000	     -0.02854187	     -0.13418131	     -1.88867680	     -0.05300510	     -0.17846115	     -2.00671910	     -0.04689143	     -0.32624844	     -2.00671910	     -0.03262050	     -0.32624844	     -1.65259220	     -0.02650398	     -0.27362253	     -1.53454990	     -0.01630882	     -0.20784685	     -1.41650760	     -0.20387170	     -1.51788585	    -10.50425377	      0.00000000	      0.00000000	      4.35364769	      5.33554699	     12.35054197	     12.89462723	    -10.38658737	     73.89365639	     23.89778519	     54.12029542	     -2.93993865	      1.00991412	     -7.11987610	    -15.64682789	     25.60906045	     38.28653587	     87.82674991	     -7.65381160	      8.10088121
      2.65517241	      3.41724367	     -1.76518593	     91.57550343	      0.20619187	      0.91930352	      0.63708932	     -1.05255348	      0.33889462	     -1.66815643	      1.97736928	      0.03451160	     21.29350696	      4.69212412	      0.00000000	      1.40455735	      0.83439201	      1.74834767	      5.72880571	      0.09998652	     19.72629963	     -4.48890372	      0.00000000	     -0.02484686	     -0.12667702	     -1.89067388	     -0.04614310	     -0.16848044	     -2.00884100	     -0.04082091	     -0.30800251	     -2.00884100	     -0.02839748	     -0.30800251	     -1.65433965	     -0.02307279	     -0.25831978	     -1.53617253	     -0.01419750	     -0.19622271	     -1.41800541	     -0.17747863	     -1.43299579	    -10.51536092	      0.00000000	      0.00000000	      4.30472109	      5.06617128	     12.36425043	     12.54001768	    -10.53493125	     73.19996385	     24.14718782	     53.47864758	     -2.75666330	      1.71304922	     -7.16933433	    -15.64878902	     25.74655405	     38.34427775	     87.52788051	     -7.65983779	      8.10989261
      2.67241379	      3.46255369	     -1.73389720	     91.59636757	      0.20605819	      0.91937311	      0.63680999	     -1.11569982	      0.37388530	     -2.06164105	      2.01088142	      0.03509650	     21.37506156	      5.20517430	      0.00000000	      1.36711146	      0.76546027	      1.27929706	      5.81095706	      0.10142033	     20.05399231	     -3.74297837	      0.00000000	     -0.02127077	     -0.11737023	     -1.90224059	     -0.03950194	     -0.15610241	     -2.02113063	     -0.03494574	     -0.28537398	     -2.02113063	     -0.02431036	     -0.28537398	     -1.66446052	     -0.01975203	     -0.23934138	     -1.54557048	     -0.01215412	     -0.18180649	     -1.42668045	     -0.15193496	     -1.32771553	    -10.57969151	      0.00000000	      0.00000000	      4.20084246	      4.64358833	     12.38385370	     12.20036714	    -10.64516285	     72.58164875	     24.26347860	     52.79229491	     -2.44186102	      2.35412852	     -7.34791634	    -15.58297051	     25.53507008	     38.48472172	     87.22960120	     -7.41230289	      8.38776041
      2.68965517	      3.47277444	     -1.72499671	     91.68082944	      0.20574079	      0.91939056	      0.63633584	     -1.18453810	      0.37670996	     -2.30400445	      2.01384189	      0.03514817	     21.42064635	      5.38649642	      0.00000000	      1.19368651	      0.91762941	      4.16734400	      5.55632822	      0.09697622	     19.13444018	     -7.83489669	      0.00000000	     -0.00496034	     -0.11074219	     -1.93255040	     -0.00921184	     -0.14728711	     -2.05333480	     -0.00814934	     -0.26925856	     -2.05333480	     -0.00566917	     -0.26925856	     -1.69098160	     -0.00460617	     -0.22582547	     -1.57019720	     -0.00283434	     -0.17153965	     -1.44941280	     -0.03543119	     -1.25273781	    -10.74826554	      0.00000000	      0.00000000	      4.01018225	      4.16567353	     12.39752339	     11.78460231	    -10.69316807	     71.18771027	     24.27233260	     53.65053205	     -1.74029415	      3.17693855	     -7.67392765	    -15.49640081	     24.94519315	     38.76231446	     87.15099728	     -6.69966140	      9.03974284
